<svg width="41" height="46" viewBox="0 0 41 46" fill="none" xmlns="http://www.w3.org/2000/svg">
<path fill-rule="evenodd" clip-rule="evenodd" d="M20.5978 0.296997C11.6906 0.296997 4.46997 7.51767 4.46997 16.4248C4.46997 25.332 11.6906 32.5526 20.5978 32.5526C29.5049 32.5526 36.7256 25.332 36.7256 16.4248C36.7256 7.51767 29.5049 0.296997 20.5978 0.296997ZM21.5438 27.199C14.9205 27.647 9.82826 15.3899 12.2176 13.009C14.3974 10.837 15.2627 11.6134 15.6721 13.4321C15.9007 14.4477 15.7311 15.6938 15.5781 16.8168C15.4453 17.7927 15.325 18.6756 15.4899 19.2334C15.8444 20.4331 16.453 21.3839 17.1536 21.3164C17.8542 21.2489 18.9405 19.3642 16.6027 12.1573C14.88 6.84704 19.5033 5.01134 19.9268 6.11656C20.118 6.6155 19.8558 7.43242 19.5478 8.39211C19.1736 9.55832 18.7316 10.9354 18.9533 12.2088C19.1348 13.251 19.3079 13.8299 19.4625 14.3469C19.6523 14.9814 19.8141 15.5226 19.9293 16.7129C19.9781 17.2168 19.9546 17.8618 19.9297 18.5473C19.8668 20.2787 19.7944 22.2693 20.852 22.9027C22.3283 23.7869 22.9758 19.4874 21.5542 11.7192C20.2777 4.74359 24.8591 6.89465 24.9799 9.00927C25.1008 11.1239 24.9667 14.3007 24.1122 18.7428C23.2577 23.185 23.8792 23.5508 24.9799 22.4336C26.0806 21.3164 26.1421 20.5267 25.5044 16.1227C25.0698 13.1211 29.7682 11.5922 29.2615 15.5363C28.7516 19.5063 26.4433 26.8676 21.5438 27.199Z" fill="#F9F9F9"/>
<path d="M2.83602 45.7014C2.20006 45.7014 1.6931 45.5824 1.31513 45.3442C0.937155 45.1121 0.748169 44.7945 0.748169 44.3915C0.748169 43.9518 0.991151 43.5915 1.47712 43.3105C1.21313 43.1456 1.08114 42.9288 1.08114 42.6601C1.08114 42.5197 1.12014 42.3945 1.19814 42.2845C1.28213 42.1746 1.39312 42.0861 1.53111 42.0189C1.30313 41.854 1.12914 41.6433 1.00915 41.3868C0.895158 41.1303 0.838162 40.8494 0.838162 40.544C0.838162 40.2082 0.910157 39.9028 1.05415 39.628C1.19814 39.3471 1.40812 39.1272 1.6841 38.9684C1.96008 38.8035 2.28706 38.7211 2.66503 38.7211C3.061 38.7211 3.40297 38.8188 3.69095 39.0142C3.79295 38.9593 3.92794 38.9135 4.09592 38.8768C4.26991 38.8341 4.4559 38.8127 4.65388 38.8127H4.86987L4.82493 39.2586C4.80957 39.4111 4.6812 39.5272 4.52793 39.5272H4.4649C4.3629 39.5272 4.27891 39.5303 4.21291 39.5364C4.3929 39.8173 4.4829 40.1532 4.4829 40.544C4.4829 40.8799 4.4109 41.1883 4.26691 41.4693C4.12892 41.7441 3.92194 41.9639 3.64596 42.1288C3.36998 42.2876 3.043 42.367 2.66503 42.367C2.52704 42.367 2.36805 42.3456 2.18806 42.3029C2.12207 42.3334 2.08907 42.3823 2.08907 42.4494C2.08907 42.5288 2.13407 42.593 2.22406 42.6418C2.32005 42.6846 2.47904 42.7212 2.70103 42.7517L3.47497 42.8525C4.50689 42.993 5.02286 43.4357 5.02286 44.1808C5.02286 44.6449 4.82787 45.0144 4.4379 45.2892C4.05393 45.564 3.51997 45.7014 2.83602 45.7014ZM2.66503 41.5242C2.92301 41.5242 3.12099 41.4387 3.25898 41.2677C3.40297 41.0906 3.47497 40.8494 3.47497 40.544C3.47497 40.2387 3.40297 40.0005 3.25898 39.8295C3.12099 39.6524 2.92301 39.5639 2.66503 39.5639C2.40105 39.5639 2.19706 39.6524 2.05307 39.8295C1.91508 40.0005 1.84609 40.2387 1.84609 40.544C1.84609 40.8494 1.91508 41.0906 2.05307 41.2677C2.19706 41.4387 2.40105 41.5242 2.66503 41.5242ZM2.88101 44.8403C3.64896 44.8403 4.03293 44.648 4.03293 44.2632C4.03293 44.0922 3.96693 43.964 3.83494 43.8785C3.70295 43.7991 3.48397 43.735 3.17799 43.6861L2.18806 43.5395C1.84609 43.68 1.6751 43.8938 1.6751 44.1808C1.6751 44.4006 1.78009 44.5655 1.99008 44.6755C2.20006 44.7854 2.49704 44.8403 2.88101 44.8403Z" fill="#F9F9F9"/>
<path d="M5.29262 38.8127H6.33655L6.36355 39.2982C6.49554 39.1455 6.66352 39.0112 6.86751 38.8951C7.07749 38.7791 7.29648 38.7211 7.52446 38.7211C7.59646 38.7211 7.66245 38.7272 7.72245 38.7394L7.64145 39.857C7.52746 39.8265 7.39847 39.8112 7.25448 39.8112C7.06849 39.8112 6.89751 39.857 6.74152 39.9486C6.58553 40.0341 6.47454 40.141 6.40854 40.2692V43.393H5.29262V38.8127Z" fill="#F9F9F9"/>
<path d="M10.072 43.4846C9.55002 43.4846 9.10305 43.3777 8.73108 43.164C8.3651 42.9441 8.08912 42.654 7.90314 42.2937C7.72315 41.9273 7.63316 41.5212 7.63316 41.0754C7.63316 40.6479 7.72015 40.257 7.89414 39.9028C8.06812 39.5486 8.32011 39.2677 8.65008 39.06C8.98006 38.8463 9.37303 38.7394 9.829 38.7394C10.249 38.7394 10.6029 38.828 10.8909 39.0051C11.1849 39.1822 11.4039 39.4203 11.5479 39.7196C11.6979 40.0188 11.7729 40.3547 11.7729 40.7273C11.7729 40.9105 11.7489 41.1181 11.7009 41.3502H8.79407C8.85407 41.7532 9.01006 42.0555 9.26204 42.2571C9.51402 42.4525 9.817 42.5502 10.171 42.5502C10.6569 42.5502 11.1069 42.425 11.5209 42.1746L11.5749 43.1365C11.3829 43.2403 11.1579 43.3258 10.8999 43.393C10.6479 43.454 10.372 43.4846 10.072 43.4846ZM10.6389 40.5807C10.6389 40.3425 10.5729 40.1318 10.441 39.9486C10.309 39.7654 10.105 39.6738 9.829 39.6738C9.55302 39.6738 9.33103 39.7562 9.16304 39.9211C8.99506 40.086 8.88107 40.3059 8.82107 40.5807H10.6389Z" fill="#F9F9F9"/>
<path d="M14.5235 43.4846C14.0015 43.4846 13.5546 43.3777 13.1826 43.164C12.8166 42.9441 12.5406 42.654 12.3546 42.2937C12.1747 41.9273 12.0847 41.5212 12.0847 41.0754C12.0847 40.6479 12.1717 40.257 12.3456 39.9028C12.5196 39.5486 12.7716 39.2677 13.1016 39.06C13.4316 38.8463 13.8245 38.7394 14.2805 38.7394C14.7005 38.7394 15.0544 38.828 15.3424 39.0051C15.6364 39.1822 15.8554 39.4203 15.9994 39.7196C16.1494 40.0188 16.2244 40.3547 16.2244 40.7273C16.2244 40.9105 16.2004 41.1181 16.1524 41.3502H13.2456C13.3056 41.7532 13.4616 42.0555 13.7135 42.2571C13.9655 42.4525 14.2685 42.5502 14.6225 42.5502C15.1084 42.5502 15.5584 42.425 15.9724 42.1746L16.0264 43.1365C15.8344 43.2403 15.6094 43.3258 15.3514 43.393C15.0994 43.454 14.8235 43.4846 14.5235 43.4846ZM15.0904 40.5807C15.0904 40.3425 15.0245 40.1318 14.8925 39.9486C14.7605 39.7654 14.5565 39.6738 14.2805 39.6738C14.0045 39.6738 13.7825 39.7562 13.6146 39.9211C13.4466 40.086 13.3326 40.3059 13.2726 40.5807H15.0904Z" fill="#F9F9F9"/>
<path d="M18.894 38.7394C19.452 38.7394 19.8749 38.9287 20.1629 39.3074C20.4509 39.686 20.5949 40.1959 20.5949 40.8372V43.393H19.479V40.9288C19.479 40.5013 19.407 40.1868 19.263 39.9852C19.125 39.7776 18.9 39.6738 18.588 39.6738C18.2461 39.6738 17.9641 39.8051 17.7421 40.0677V43.393H16.6262V38.8127H17.6701L17.6881 39.1333C18.0661 38.8707 18.468 38.7394 18.894 38.7394Z" fill="#F9F9F9"/>
<path d="M22.5096 43.4846C22.2216 43.4846 21.9576 43.4571 21.7176 43.4021C21.4836 43.3472 21.2407 43.2617 20.9887 43.1456L21.0877 42.1746C21.3396 42.3273 21.5736 42.4433 21.7896 42.5227C22.0116 42.596 22.2396 42.6327 22.4736 42.6327C22.9295 42.6327 23.1575 42.48 23.1575 42.1746C23.1575 42.0097 23.0975 41.8845 22.9775 41.799C22.8575 41.7074 22.6415 41.6006 22.3296 41.4784C21.8856 41.3135 21.5586 41.1273 21.3486 40.9196C21.1387 40.7059 21.0337 40.4188 21.0337 40.0585C21.0337 39.6616 21.1837 39.341 21.4836 39.0967C21.7836 38.8463 22.1886 38.7211 22.6985 38.7211C23.2085 38.7211 23.6735 38.8402 24.0934 39.0784L23.9944 40.0494C23.7665 39.8906 23.5505 39.7684 23.3465 39.6829C23.1485 39.5974 22.9385 39.5547 22.7165 39.5547C22.5246 39.5547 22.3746 39.5944 22.2666 39.6738C22.1646 39.7532 22.1136 39.8662 22.1136 40.0127C22.1136 40.1288 22.1436 40.2234 22.2036 40.2967C22.2696 40.37 22.3596 40.4372 22.4736 40.4982C22.5876 40.5532 22.7765 40.6326 23.0405 40.7364C23.4785 40.9074 23.7935 41.0967 23.9855 41.3044C24.1774 41.5059 24.2734 41.7777 24.2734 42.1197C24.2734 42.5533 24.1204 42.8891 23.8145 43.1273C23.5085 43.3655 23.0735 43.4846 22.5096 43.4846Z" fill="#F9F9F9"/>
<path d="M27.0259 38.7394C27.4519 38.7394 27.8178 38.8463 28.1238 39.06C28.4298 39.2738 28.6608 39.5608 28.8168 39.9211C28.9727 40.2814 29.0507 40.6784 29.0507 41.112C29.0507 41.5456 28.9727 41.9426 28.8168 42.3029C28.6608 42.6632 28.4298 42.9502 28.1238 43.164C27.8178 43.3777 27.4519 43.4846 27.0259 43.4846C26.7559 43.4846 26.5249 43.454 26.3329 43.393C26.147 43.338 25.967 43.2464 25.793 43.1182V45.2118V45.703H25.4233C25.0112 45.703 24.6771 45.3689 24.6771 44.9567V38.8127H25.577L25.694 39.2341C25.886 39.0692 26.087 38.947 26.2969 38.8677C26.5069 38.7822 26.7499 38.7394 27.0259 38.7394ZM26.8549 42.5502C27.1849 42.5502 27.4429 42.4189 27.6288 42.1563C27.8148 41.8937 27.9078 41.5456 27.9078 41.112C27.9078 40.6784 27.8148 40.3303 27.6288 40.0677C27.4429 39.8051 27.1849 39.6738 26.8549 39.6738C26.4829 39.6738 26.204 39.802 26.018 40.0585C25.832 40.315 25.739 40.6662 25.739 41.112C25.739 41.5578 25.832 41.909 26.018 42.1655C26.204 42.422 26.4829 42.5502 26.8549 42.5502Z" fill="#F9F9F9"/>
<path d="M30.619 43.4846C30.247 43.4846 29.9351 43.3624 29.6831 43.1182C29.4371 42.8678 29.3141 42.5319 29.3141 42.1105C29.3141 41.7135 29.4551 41.396 29.7371 41.1578C30.0191 40.9135 30.352 40.7425 30.736 40.6448C31.12 40.541 31.489 40.483 31.8429 40.4708C31.8309 40.202 31.7619 40.0097 31.6359 39.8936C31.516 39.7776 31.315 39.7196 31.033 39.7196C30.835 39.7196 30.64 39.7471 30.448 39.802C30.262 39.857 30.0461 39.9456 29.8001 40.0677L29.7011 39.1425C30.247 38.8738 30.793 38.7394 31.339 38.7394C31.8669 38.7394 32.2689 38.886 32.5449 39.1791C32.8269 39.4723 32.9678 39.9394 32.9678 40.5807V41.8174C32.9678 42.0494 32.9768 42.2174 32.9948 42.3212C33.0188 42.4189 33.0548 42.483 33.1028 42.5136C33.1568 42.538 33.2438 42.5502 33.3638 42.5502H33.5078L33.4088 43.4846H33.0038C32.7579 43.4846 32.5509 43.4388 32.3829 43.3472C32.2149 43.2495 32.0859 43.1182 31.9959 42.9533C31.8519 43.1182 31.6539 43.2495 31.402 43.3472C31.156 43.4388 30.895 43.4846 30.619 43.4846ZM31.087 42.6143C31.201 42.6143 31.33 42.5868 31.474 42.5319C31.6179 42.4708 31.7439 42.3884 31.8519 42.2845V41.2402C31.492 41.2586 31.174 41.338 30.898 41.4784C30.622 41.6189 30.484 41.8143 30.484 42.0647C30.484 42.254 30.532 42.3945 30.628 42.4861C30.724 42.5716 30.877 42.6143 31.087 42.6143Z" fill="#F9F9F9"/>
<path d="M33.8592 38.8127H34.9031L34.9301 39.2982C35.0621 39.1455 35.2301 39.0112 35.4341 38.8951C35.6441 38.7791 35.8631 38.7211 36.091 38.7211C36.163 38.7211 36.229 38.7272 36.289 38.7394L36.208 39.857C36.094 39.8265 35.965 39.8112 35.8211 39.8112C35.6351 39.8112 35.4641 39.857 35.3081 39.9486C35.1521 40.0341 35.0411 40.141 34.9751 40.2692V43.393H33.8592V38.8127Z" fill="#F9F9F9"/>
<path d="M36.6407 36.5226H37.7566V40.6906L39.1515 38.8127H40.4114L38.7735 41.0112L40.4474 43.393H39.1875L37.7566 41.3593V43.393H36.6407V36.5226Z" fill="#F9F9F9"/>
</svg>
